<svg viewBox="0 0 1024 1024" xmlns="http://www.w3.org/2000/svg">
	<path d="M245.76 250.88h179.2l-71.68 71.68H250.88c-94.72 0-171.52 76.8-171.52 171.52s76.8 171.52 171.52 171.52h102.4l71.68 71.68h-179.2C110.08 737.28 0 627.2 0 491.52S110.08 250.88 245.76 250.88Zm532.48 0C913.92 250.88 1024 360.96 1024 496.64S913.92 737.28 778.24 737.28h-179.2l71.68-71.68h102.4c94.72 0 171.52-76.8 171.52-171.52s-76.8-171.52-171.52-171.52h-102.4l-71.68-71.68h179.2ZM312.32 455.68h399.36v71.68H312.32v-71.68Z" />
</svg>
